PathFileType	4	(X/Y/Z)	D:\Research_projects\MuscleProsody\BulkSports2Dtrack\RetrackedSports2D\p1_sample60_cam2\p1_sample60_cam2_Sports2D\p1_sample60_cam2_Sports2D_px_person00.trc
DataRate	CameraRate	NumFrames	NumMarkers	Units	OrigDataRate	OrigDataStartFrame	OrigNumFrames
60	60	8	22	m	60	0	780
Frame#	Time	Hip			RHip			RKnee			RAnkle			RBigToe			RSmallToe			RHeel			LHip			LKnee			LAnkle			LBigToe			LSmallToe			LHeel			Neck			Head			Nose			RShoulder			RElbow			RWrist			LShoulder			LElbow			LWrist		
		X1	Y1	Z1	X2	Y2	Z2	X3	Y3	Z3	X4	Y4	Z4	X5	Y5	Z5	X6	Y6	Z6	X7	Y7	Z7	X8	Y8	Z8	X9	Y9	Z9	X10	Y10	Z10	X11	Y11	Z11	X12	Y12	Z12	X13	Y13	Z13	X14	Y14	Z14	X15	Y15	Z15	X16	Y16	Z16	X17	Y17	Z17	X18	Y18	Z18	X19	Y19	Z19	X20	Y20	Z20	X21	Y21	Z21	X22	Y22	Z22
0	0.0	243.42336235700574	518.2959169374832	0.0	212.3843798630221	528.6125317517123	0.0	217.5452095133859	635.6615612373556	0.0	224.45043221211523	720.3123250169715	0.0	222.76662832804675	765.1400365771983	0.0	205.5195668264925	756.4827924303637	0.0	231.33679617402197	727.2405798082883	0.0	271.08432600251615	530.3594961674245	0.0	267.62488736681007	635.6485523400825	0.0	262.4347151242662	721.9478110959802	0.0	269.38179124188133	763.3710172187956	0.0	284.90356268233427	758.1412991747289	0.0	257.26292613049355	730.600977423918	0.0	248.6447312753634	333.6117255784804	0.0	245.17554153703014	247.35548106831936	0.0	234.79246210145956	290.5331080995403	0.0	196.83688320498973	361.2620437883936	0.0	183.06324924199603	449.2600938805129	0.0	170.99188479201305	521.7804207103258	0.0	303.8397068817135	362.957074504476	0.0	315.9321055008729	449.2397829843437	0.0	322.834702406037	525.224702150696	0.0
1	0.016666666666666666	243.14069397734377	518.6025808382693	0.0	212.47963680107168	528.3352597384862	0.0	217.4237396176967	635.9971013107058	0.0	224.19637079455532	721.2985668144996	0.0	223.26084884383422	765.3430431590502	0.0	205.92718818102483	757.295267055293	0.0	230.74060333078194	728.6763333012011	0.0	271.04214473188546	529.9223617531817	0.0	267.62615687501756	635.8650660081045	0.0	263.0238317965374	722.7344501348723	0.0	268.48723756401307	763.0982626400322	0.0	284.49552652911274	757.8343209823861	0.0	258.0091844986353	731.3888952592407	0.0	248.34889303498468	333.1096855485381	0.0	245.54316237424368	247.2736357518938	0.0	235.35881863349618	290.3228861232353	0.0	196.6341631700947	361.59814541402363	0.0	182.89258466631878	448.82107425586844	0.0	171.10080283261908	521.1515386821853	0.0	303.8596318017423	362.75219055555823	0.0	315.9818078409093	448.81657451439133	0.0	322.85926993457866	524.2007916638174	0.0
2	0.03333333333333333	242.87820599806122	518.8815965914246	0.0	212.562573627142	528.0729906947397	0.0	217.3081396257916	636.30903357494	0.0	223.96007063715186	722.2177299909654	0.0	223.72567090687312	765.5242510242671	0.0	206.30955340960404	758.0484615379605	0.0	230.17750051549257	730.015150115777	0.0	271.00066681981355	529.5160471501033	0.0	267.6313289244081	636.0580118983562	0.0	263.58236844165367	723.4571009143076	0.0	267.64438843285666	762.859274743884	0.0	284.10081119009385	757.5579194413853	0.0	258.70722040045337	732.0985922780129	0.0	248.0760397958621	332.6437218123225	0.0	245.87787017903085	247.19626161378955	0.0	235.8811216249922	290.1407349261335	0.0	196.44624312578932	361.9098510999983	0.0	182.7239392844195	448.4054405552698	0.0	171.18336587027432	520.5499700683288	0.0	303.8783658623022	362.56009336506895	0.0	316.0311015632977	448.42194750345567	0.0	322.8859023943267	523.2370503945468	0.0
3	0.05	242.65065549149276	519.1105066653225	0.0	212.62842466185376	527.8289537750258	0.0	217.20101650544936	636.5786025644468	0.0	223.75244330581071	723.0330144625586	0.0	224.1417236043958	765.6756958351017	0.0	206.65276944985368	758.7043450303612	0.0	229.67239460257244	731.2018739806775	0.0	270.9635342883793	529.1563313591189	0.0	267.6453044170565	636.2090086985456	0.0	264.0855942025044	724.0702959187339	0.0	266.8973540516988	762.6722156498961	0.0	283.7351244374003	757.3260589101515	0.0	259.32097546436034	732.6817367486982	0.0	247.8448691457836	332.2396405531349	0.0	246.15659600709776	247.12832055322863	0.0	236.32044793842596	290.0097249763139	0.0	196.28533170282847	362.17853563254477	0.0	182.55805057913287	448.0294227783985	0.0	171.22354006526774	520.0021483791442	0.0	303.8936467632731	362.38940821437694	0.0	316.08032119166575	448.0743189702169	0.0	322.9111897763121	522.3837543410218	0.0
4	0.06666666666666667	242.4642834888199	519.2721730236999	0.0	212.68041964671497	527.5943535568437	0.0	217.10283976701933	636.7894321415919	0.0	223.5788132947547	723.7280363241173	0.0	224.49742711024405	765.7927558674866	0.0	206.95038371382654	759.2439828039542	0.0	229.2414995951769	732.2127729712222	0.0	270.93277081966556	528.838252033701	0.0	267.6725674079815	636.3036916872347	0.0	264.51832062097657	724.5524373739453	0.0	266.2686708835033	762.5350653750777	0.0	283.4108734375048	757.1382133481574	0.0	259.8314130605472	733.1212926624878	0.0	247.66489816156832	331.9071570081036	0.0	246.36752974252198	247.07129581786856	0.0	236.65448078178466	289.9337724603648	0.0	196.1600018910132	362.3928794521376	0.0	182.39222014744533	447.702284166126	0.0	171.21598827009072	519.5279875026089	0.0	303.9042352052744	362.2454154197414	0.0	316.131513052409	447.7849359341468	0.0	322.9289452012293	521.6692370048866	0.0
5	0.08333333333333333	242.31773832085588	519.3604532185321	0.0	212.72616141976164	527.360280506927	0.0	217.01381609244078	636.9356148785362	0.0	223.44014272751838	724.3017594400717	0.0	224.78645657910752	765.8733707381778	0.0	207.19965194216405	759.6641518971203	0.0	228.8918762944039	733.0444948089403	0.0	270.9099255048967	528.5487495120844	0.0	267.7159610956302	636.3383255850758	0.0	264.87607638773756	724.9023793515269	0.0	265.75824048601794	762.4389183873171	0.0	283.13264821232195	756.9933381732889	0.0	260.2358386110786	733.4260157923235	0.0	247.53817025962599	331.6439328548231	0.0	246.508974167657	247.022704057703	0.0	236.87725583704182	289.90251299058343	0.0	196.0734946299363	362.5487103132999	0.0	182.2243083257828	447.4266759531101	0.0	171.1632392016306	519.1370765608435	0.0	303.9094441156016	362.1274979432201	0.0	316.18509094488957	447.55793452662465	0.0	322.93413322356486	521.1012742918913	0.0
6	0.1	242.20597837870392	519.382890580258	0.0	212.7736043782415	527.1271011684673	0.0	216.93475662295566	637.0259253376582	0.0	223.3338048249123	724.7610225030965	0.0	225.00777439709782	765.9164072806083	0.0	207.3999298081727	759.9730893619205	0.0	228.62192235127563	733.7041444166283	0.0	270.89612845640625	528.281680569564	0.0	267.77480465739706	636.3224060348156	0.0	265.1631517381884	725.1328885710652	0.0	265.35048213267896	762.3786590970975	0.0	282.8957499500588	756.8976699291185	0.0	260.5428061945282	733.6190359843611	0.0	247.460448359341	331.442106778521	0.0	246.58662354954265	246.97869734619965	0.0	236.99649653363159	289.9014619837379	0.0	196.0230625006412	362.6473503130244	0.0	182.05541889327233	447.1995796398003	0.0	171.07249170844324	518.8293869202041	0.0	303.907876869009	362.0283076131951	0.0	316.2372391735067	447.3908948846559	0.0	322.92354972560526	520.6717769550595	0.0
7	0.11666666666666667	242.1243304563324	519.357366471429	0.0	212.82842101280687	526.9027396492855	0.0	216.8675021312269	637.0787302933267	0.0	223.25542198491507	725.1146155017262	0.0	225.16758405798078	765.925010320518	0.0	207.553117111905	760.1877101416729	0.0	228.42323227209363	734.204096282209	0.0	270.8923728416712	528.0398982501275	0.0	267.84584286625505	636.2734719635556	0.0	265.38636580693736	725.2631795918247	0.0	265.0264604968728	762.3503442832746	0.0	282.69263718386657	756.8558914860126	0.0	260.76372819338764	733.7261609005732	0.0	247.42275505550634	331.2932615681242	0.0	246.61235541856843	246.9383834260235	0.0	237.03023317121543	289.91915166997586	0.0	196.00201692045573	362.6952622078345	0.0	181.88973431860742	447.0157809045778	0.0	170.9534708640056	518.6011057968598	0.0	303.89859798032313	361.9389781869492	0.0	316.28162337178463	447.27682542193526	0.0	322.89614403818075	520.3619007375191	0.0
